<mxfile host="app.diagrams.net" modified="2020-09-20T12:30:43.428Z" agent="5.0 (Windows NT 10.0; Win64; x64) AppleWebKit/537.36 (KHTML, like Gecko) Chrome/85.0.4183.102 Safari/537.36" etag="8bE76tuBpg0Ayx7oIGpU" version="13.7.3" type="github">
  <diagram id="qkHHiRqnn6-byBVoWVY5" name="Page-1">
    <mxGraphModel dx="1673" dy="934" grid="1" gridSize="10" guides="1" tooltips="1" connect="1" arrows="1" fold="1" page="1" pageScale="1" pageWidth="1169" pageHeight="827" math="0" shadow="0">
      <root>
        <mxCell id="0" />
        <mxCell id="1" parent="0" />
        <mxCell id="MkqXJ4FcXzUcmUs9wCZU-4" style="edgeStyle=orthogonalEdgeStyle;rounded=0;orthogonalLoop=1;jettySize=auto;html=1;entryX=0;entryY=0.5;entryDx=0;entryDy=0;exitX=1;exitY=0.25;exitDx=0;exitDy=0;" edge="1" parent="1" source="MkqXJ4FcXzUcmUs9wCZU-1" target="MkqXJ4FcXzUcmUs9wCZU-2">
          <mxGeometry relative="1" as="geometry" />
        </mxCell>
        <mxCell id="MkqXJ4FcXzUcmUs9wCZU-7" style="edgeStyle=orthogonalEdgeStyle;rounded=0;orthogonalLoop=1;jettySize=auto;html=1;entryX=0;entryY=0.5;entryDx=0;entryDy=0;exitX=1;exitY=0.75;exitDx=0;exitDy=0;" edge="1" parent="1" source="MkqXJ4FcXzUcmUs9wCZU-1" target="MkqXJ4FcXzUcmUs9wCZU-3">
          <mxGeometry relative="1" as="geometry" />
        </mxCell>
        <mxCell id="MkqXJ4FcXzUcmUs9wCZU-1" value="User" style="rounded=0;whiteSpace=wrap;html=1;" vertex="1" parent="1">
          <mxGeometry x="100" y="310" width="120" height="60" as="geometry" />
        </mxCell>
        <mxCell id="MkqXJ4FcXzUcmUs9wCZU-9" style="edgeStyle=orthogonalEdgeStyle;rounded=0;orthogonalLoop=1;jettySize=auto;html=1;entryX=0;entryY=0.25;entryDx=0;entryDy=0;" edge="1" parent="1" source="MkqXJ4FcXzUcmUs9wCZU-2" target="MkqXJ4FcXzUcmUs9wCZU-8">
          <mxGeometry relative="1" as="geometry">
            <Array as="points">
              <mxPoint x="650" y="230" />
              <mxPoint x="650" y="325" />
            </Array>
          </mxGeometry>
        </mxCell>
        <mxCell id="MkqXJ4FcXzUcmUs9wCZU-2" value="1.1&lt;br&gt;Login" style="ellipse;whiteSpace=wrap;html=1;" vertex="1" parent="1">
          <mxGeometry x="430" y="180" width="120" height="100" as="geometry" />
        </mxCell>
        <mxCell id="MkqXJ4FcXzUcmUs9wCZU-10" style="edgeStyle=orthogonalEdgeStyle;rounded=0;orthogonalLoop=1;jettySize=auto;html=1;entryX=0;entryY=0.75;entryDx=0;entryDy=0;exitX=1;exitY=0.5;exitDx=0;exitDy=0;" edge="1" parent="1" source="MkqXJ4FcXzUcmUs9wCZU-3" target="MkqXJ4FcXzUcmUs9wCZU-8">
          <mxGeometry relative="1" as="geometry">
            <Array as="points">
              <mxPoint x="650" y="440" />
              <mxPoint x="650" y="355" />
            </Array>
          </mxGeometry>
        </mxCell>
        <mxCell id="MkqXJ4FcXzUcmUs9wCZU-3" value="1.2&lt;br&gt;Registeration" style="ellipse;whiteSpace=wrap;html=1;" vertex="1" parent="1">
          <mxGeometry x="430" y="390" width="120" height="100" as="geometry" />
        </mxCell>
        <mxCell id="MkqXJ4FcXzUcmUs9wCZU-12" style="edgeStyle=orthogonalEdgeStyle;rounded=0;orthogonalLoop=1;jettySize=auto;html=1;entryX=0.5;entryY=0;entryDx=0;entryDy=0;exitX=0.75;exitY=0;exitDx=0;exitDy=0;" edge="1" parent="1" source="MkqXJ4FcXzUcmUs9wCZU-8" target="MkqXJ4FcXzUcmUs9wCZU-11">
          <mxGeometry relative="1" as="geometry">
            <Array as="points">
              <mxPoint x="840" y="240" />
              <mxPoint x="1060" y="240" />
            </Array>
          </mxGeometry>
        </mxCell>
        <mxCell id="MkqXJ4FcXzUcmUs9wCZU-8" value="API Server" style="rounded=0;whiteSpace=wrap;html=1;" vertex="1" parent="1">
          <mxGeometry x="750" y="310" width="120" height="60" as="geometry" />
        </mxCell>
        <mxCell id="MkqXJ4FcXzUcmUs9wCZU-13" style="edgeStyle=orthogonalEdgeStyle;rounded=0;orthogonalLoop=1;jettySize=auto;html=1;entryX=0.75;entryY=1;entryDx=0;entryDy=0;exitX=0.5;exitY=1;exitDx=0;exitDy=0;" edge="1" parent="1" source="MkqXJ4FcXzUcmUs9wCZU-11" target="MkqXJ4FcXzUcmUs9wCZU-8">
          <mxGeometry relative="1" as="geometry">
            <Array as="points">
              <mxPoint x="1060" y="440" />
              <mxPoint x="840" y="440" />
            </Array>
          </mxGeometry>
        </mxCell>
        <mxCell id="MkqXJ4FcXzUcmUs9wCZU-11" value="1.3&lt;br&gt;Verfikasi" style="ellipse;whiteSpace=wrap;html=1;" vertex="1" parent="1">
          <mxGeometry x="1000" y="290" width="120" height="100" as="geometry" />
        </mxCell>
      </root>
    </mxGraphModel>
  </diagram>
</mxfile>
